<?xml version="1.0" encoding="UTF-8" standalone="no"?>
<!-- Uploaded to: SVG Repo, www.svgrepo.com, Generator: SVG Repo Mixer Tools -->

<svg
   fill="#000000"
   height="800px"
   width="800px"
   version="1.1"
   id="Capa_1"
   viewBox="0 0 271.333 271.333"
   xml:space="preserve"
   sodipodi:docname="locked.svg"
   inkscape:version="1.3.2 (091e20e, 2023-11-25, custom)"
   xmlns:inkscape="http://www.inkscape.org/namespaces/inkscape"
   xmlns:sodipodi="http://sodipodi.sourceforge.net/DTD/sodipodi-0.dtd"
   xmlns="http://www.w3.org/2000/svg"
   xmlns:svg="http://www.w3.org/2000/svg"><defs
   id="defs1" /><sodipodi:namedview
   id="namedview1"
   pagecolor="#505050"
   bordercolor="#ffffff"
   borderopacity="1"
   inkscape:showpageshadow="0"
   inkscape:pageopacity="0"
   inkscape:pagecheckerboard="1"
   inkscape:deskcolor="#d1d1d1"
   inkscape:zoom="0.9144"
   inkscape:cx="150.91864"
   inkscape:cy="362.53281"
   inkscape:window-width="2560"
   inkscape:window-height="1369"
   inkscape:window-x="1912"
   inkscape:window-y="-8"
   inkscape:window-maximized="1"
   inkscape:current-layer="Capa_1" />
<path
   d="M218.292,106h-8.736V73.889C209.555,33.146,176.409,0,135.665,0C94.923,0,61.777,33.146,61.777,73.889V106h-8.735  c-8.906,0-16.125,7.219-16.125,16.125v133.083c0,8.906,7.219,16.125,16.125,16.125h165.25c8.906,0,16.125-7.219,16.125-16.125  V122.125C234.417,113.219,227.197,106,218.292,106z M151.333,190.235v26.432c0,8.652-7.014,15.666-15.666,15.666  c-8.652,0-15.666-7.014-15.666-15.666v-26.432c-5.885-4.639-9.668-11.826-9.668-19.901c0-13.992,11.342-25.334,25.334-25.334  c13.992,0,25.334,11.342,25.334,25.334C161.001,178.409,157.218,185.596,151.333,190.235z M169.555,104.5h-67.778V73.889  c0-18.687,15.202-33.889,33.889-33.889s33.89,15.202,33.89,33.889V104.5z"
   id="path1"
   style="fill:#000000;fill-opacity:1" />
</svg>
