<?xml version="1.0" encoding="UTF-8" standalone="no"?>
<!-- Created with Inkscape (http://www.inkscape.org/) -->

<svg
   width="6.7273545in"
   height="1.953019in"
   viewBox="0 0 170.8748 49.606682"
   version="1.1"
   id="svg5"
   inkscape:version="1.3 (0e150ed6c4, 2023-07-21)"
   sodipodi:docname="logo.svg"
   xmlns:inkscape="http://www.inkscape.org/namespaces/inkscape"
   xmlns:sodipodi="http://sodipodi.sourceforge.net/DTD/sodipodi-0.dtd"
   xmlns="http://www.w3.org/2000/svg"
   xmlns:svg="http://www.w3.org/2000/svg">
  <sodipodi:namedview
     id="namedview7"
     pagecolor="#1c1c1c"
     bordercolor="#ffffff"
     borderopacity="0.23137255"
     inkscape:pageshadow="0"
     inkscape:pageopacity="1"
     inkscape:pagecheckerboard="false"
     inkscape:document-units="mm"
     showgrid="false"
     units="in"
     width="12in"
     guidecolor="#ea71d8"
     guideopacity="0.49803922"
     guidehicolor="#ff00b7"
     guidehiopacity="0.49803922"
     inkscape:showpageshadow="0"
     inkscape:deskcolor="#d1d1d1"
     inkscape:zoom="2.38"
     inkscape:cx="324.36975"
     inkscape:cy="64.07563"
     inkscape:window-width="2560"
     inkscape:window-height="1369"
     inkscape:window-x="1912"
     inkscape:window-y="-8"
     inkscape:window-maximized="1"
     inkscape:current-layer="layer1" />
  <defs
     id="defs2">
    <rect
       x="569.33215"
       y="673.96619"
       width="352.88336"
       height="176.2392"
       id="rect4" />
    <rect
       x="585.7453"
       y="673.96619"
       width="202.08727"
       height="103.58294"
       id="rect3" />
  </defs>
  <g
     inkscape:label="Layer 1"
     inkscape:groupmode="layer"
     id="layer1"
     transform="translate(-59.30706,-115.21488)">
    <text
       xml:space="preserve"
       transform="scale(0.26458333)"
       id="text3"
       style="font-weight:bold;font-size:64px;line-height:1.25;font-family:'Futura BdCn BT';-inkscape-font-specification:'Futura BdCn BT Bold';text-align:center;white-space:pre;shape-inside:url(#rect3);display:inline;fill:#ffb800;fill-opacity:1;stroke:none;stroke-width:113.386;stroke-linejoin:round;stroke-opacity:0.996078" />
    <text
       xml:space="preserve"
       transform="scale(0.26458333)"
       id="text4"
       style="font-weight:bold;font-size:64px;line-height:1.25;font-family:'Futura BdCn BT';-inkscape-font-specification:'Futura BdCn BT Bold';text-align:center;white-space:pre;shape-inside:url(#rect4);display:inline;fill:#ffb800;fill-opacity:1;stroke:none;stroke-width:113.386;stroke-linejoin:round;stroke-opacity:0.996078" />
    <path
       d="m 87.7589,146.57997 -3.081587,-12.75187 -2.389638,0.57747 -0.699183,-2.89328 7.919021,-1.91369 0.699184,2.89328 -2.389637,0.57747 3.081588,12.75188 z m 11.823532,-2.57916 -1.243241,-6.42935 q -0.175811,-0.9092 -0.457171,-1.20288 -0.283452,-0.3045 -0.802995,-0.20404 -0.562838,0.10884 -0.734345,0.55746 -0.171507,0.44862 0.0064,1.36864 l 1.218125,6.29946 -2.933253,0.56721 -3.244147,-16.77691 2.933253,-0.56721 1.439983,7.44679 q 0.457172,-0.82949 1.052541,-1.2927 0.604101,-0.47613 1.394239,-0.62892 1.244738,-0.24069 1.865761,0.35785 0.62102,0.59854 1.02497,2.68753 l 1.40231,7.25196 z m 9.544378,-7.97295 q -0.20438,-1.16223 -0.67885,-1.66073 -0.46516,-0.51101 -1.23956,-0.39711 -0.76349,0.1123 -1.08041,0.76063 -0.31693,0.64834 -0.15169,1.77175 z m -2.90185,2.16512 0.0128,0.0873 q 0.17647,1.19977 0.69649,1.78071 0.52002,0.58094 1.30532,0.46544 0.50172,-0.0738 0.80583,-0.43053 0.31501,-0.35834 0.4417,-1.01212 l 2.54133,-0.37379 q -0.1132,1.65466 -1.08165,2.72197 -0.95754,1.0657 -2.54996,1.29992 -1.99597,0.29358 -3.39371,-1.02741 -1.39774,-1.32099 -1.77153,-3.86231 -0.37861,-2.57405 0.57956,-4.24156 0.95817,-1.66752 2.95414,-1.9611 2.11595,-0.31123 3.41232,1.00239 1.29636,1.31362 1.71989,4.19306 l 0.0754,0.51262 z m 7.94526,3.55763 -1.19899,-10.74818 2.761,-0.308 0.21266,1.9064 q 0.24423,-1.09214 0.78939,-1.67431 0.54393,-0.59313 1.3973,-0.69942 l 0.31534,2.82674 -0.19722,0.022 q -1.17233,0.13078 -1.53729,0.73722 -0.35523,0.59426 -0.13646,2.55545 l 0.56344,5.05088 z m 6.41858,-0.75836 -0.72305,-10.79065 2.74991,-0.18427 0.11204,1.67195 q 0.50054,-0.93956 1.17503,-1.42672 0.6745,-0.48716 1.54347,-0.54538 0.87997,-0.059 1.46018,0.35516 0.5802,0.41414 0.82616,1.28158 0.5658,-0.95498 1.23003,-1.4304 0.6635,-0.48643 1.46647,-0.54023 1.17697,-0.0789 1.69349,0.70415 0.52753,0.78228 0.69779,3.3232 l 0.45108,6.73179 -2.92591,0.19606 -0.43781,-6.5338 q -0.0612,-0.91297 -0.28275,-1.25169 -0.22158,-0.33872 -0.70557,-0.30629 -0.58298,0.0391 -0.81018,0.441 -0.21619,0.40121 -0.15059,1.38017 l 0.42896,6.4018 -2.9039,0.19458 -0.43782,-6.53379 q -0.0597,-0.89097 -0.29375,-1.25095 -0.22305,-0.36073 -0.69604,-0.32903 -0.59398,0.0398 -0.8307,0.46447 -0.22572,0.42394 -0.1616,1.38091 l 0.42897,6.4018 z m 18.67574,-3.35357 q 0.79364,-0.0132 1.2105,-0.80299 0.42769,-0.80099 0.40347,-2.25599 -0.0241,-1.44399 -0.47799,-2.21927 -0.44311,-0.78648 -1.23675,-0.77326 -0.79364,0.0132 -1.2105,0.80299 -0.41685,0.78978 -0.39262,2.24478 0.0244,1.46604 0.46733,2.24149 0.44292,0.77546 1.23656,0.76225 z m 4.45821,-3.08429 q 0.043,2.57933 -1.16627,4.12103 -1.1982,1.54152 -3.24844,1.57566 -2.06126,0.0343 -3.30994,-1.45542 -1.23783,-1.50096 -1.28097,-4.09131 -0.0428,-2.56831 1.1446,-4.09863 1.19838,-1.53049 3.25964,-1.56482 2.06126,-0.0343 3.31012,1.46645 1.24868,1.48975 1.29126,4.04704 z m 10.13655,5.46552 q -0.46739,0.17623 -0.94342,0.253 -0.46528,0.0881 -0.93918,0.0767 -3.0749,-0.074 -4.94978,-2.35764 -1.86387,-2.28341 -1.77666,-5.90936 0.0907,-3.76923 2.01992,-6.0386 1.94028,-2.26911 4.97109,-2.19621 0.56208,0.0135 1.05565,0.12464 0.49383,0.10009 0.94092,0.30934 l -0.0724,3.00877 q -0.45838,-0.19849 -0.8971,-0.29726 -0.42771,-0.0985 -0.84651,-0.10858 -1.60908,-0.0387 -2.6462,1.3589 -1.03712,1.3976 -1.09358,3.7451 -0.0543,2.25933 0.93695,3.68367 1.00232,1.4246 2.62243,1.46357 0.40778,0.01 0.82897,-0.0793 0.43221,-0.0889 0.86654,-0.26588 z m 5.88714,-1.88716 q 0.79207,0.0517 1.27204,-0.70144 0.49169,-0.76337 0.58639,-2.21549 0.094,-1.44113 -0.29512,-2.25089 -0.37738,-0.82005 -1.16945,-0.8717 -0.79207,-0.0517 -1.27204,0.70143 -0.47997,0.75309 -0.57467,2.20521 -0.0954,1.46313 0.28268,2.27218 0.3781,0.80904 1.17017,0.8607 z m 4.69524,-2.70984 q -0.16787,2.57422 -1.49898,4.012 -1.32011,1.4385 -3.36629,1.30506 -2.05718,-0.13416 -3.17999,-1.72092 -1.11111,-1.59704 -0.94251,-4.18227 0.16715,-2.56322 1.47555,-3.99143 1.31939,-1.4275 3.37656,-1.29334 2.05718,0.13415 3.17928,1.73192 1.12282,1.58676 0.95638,4.13898 z m 10.18389,-4.35867 -0.59567,5.56859 q -0.34474,3.22276 -1.31584,4.21652 -0.95897,0.98396 -3.18421,0.74593 -2.23621,-0.23921 -2.98727,-1.40609 -0.74011,-1.16572 -0.3942,-4.39944 l 0.59567,-5.56859 2.89391,0.30956 -0.7399,6.91689 q -0.0903,0.84405 0.10825,1.16464 0.19854,0.3206 0.77951,0.38274 0.58098,0.0622 0.84401,-0.22016 0.27399,-0.28113 0.36193,-1.10326 l 0.7399,-6.91689 z m 6.39552,3.25953 q -0.68671,-0.10393 -1.1051,0.52404 -0.41838,0.62798 -0.64932,2.154 -0.2524,1.66773 -0.0653,2.42079 0.19798,0.7547 0.8738,0.85698 0.65401,0.099 1.07304,-0.60695 0.43158,-0.71518 0.67572,-2.32841 0.226,-1.49332 0.0323,-2.20277 -0.19203,-0.72036 -0.83514,-0.81768 z m -6.07479,12.07022 2.26988,-14.99867 2.76865,0.419 -0.24744,1.63503 q 0.64758,-0.81628 1.30052,-1.15231 0.65295,-0.33603 1.35056,-0.23045 1.51513,0.22929 2.11655,1.78094 0.60141,1.55165 0.1989,4.2113 -0.39921,2.63785 -1.42522,3.9655 -1.02601,1.32765 -2.48664,1.1066 -0.77392,-0.11712 -1.31504,-0.66731 -0.53948,-0.56108 -0.80917,-1.50503 l -0.88749,5.8643 z m 10.79755,-2.68646 3.15087,-16.79468 2.93636,0.5509 -3.15087,16.79467 z m 11.93776,-3.99364 q 0.22695,-1.15804 -0.0367,-1.79375 -0.25045,-0.64404 -1.01404,-0.81604 -0.75284,-0.16958 -1.28159,0.32155 -0.52874,0.49113 -0.77826,1.59888 z m -3.48607,0.97764 -0.0194,0.086 q -0.26647,1.18304 0.01,1.91205 0.27651,0.72902 1.05086,0.90344 0.49472,0.11143 0.9067,-0.11218 0.42275,-0.22119 0.77593,-0.78577 l 2.50588,0.56445 q -0.70027,1.50344 -1.98758,2.15142 -1.27656,0.6504 -2.84676,0.29671 -1.96814,-0.44332 -2.79778,-2.17837 -0.82964,-1.73505 -0.26519,-4.24093 0.57172,-2.53815 2.06513,-3.74993 1.49341,-1.21178 3.46155,-0.76846 2.08644,0.46997 2.82413,2.16171 0.73769,1.69174 0.0981,4.53102 l -0.11386,0.50548 z m 6.13288,6.18235 2.81112,-10.44312 2.68263,0.72212 -0.4986,1.8523 q 0.62639,-0.92739 1.34657,-1.27012 0.72304,-0.35337 1.55624,-0.1405 l -0.73931,2.7465 -0.19162,-0.0516 q -1.13905,-0.30661 -1.70037,0.12455 -0.5478,0.42338 -1.06073,2.3289 l -1.32103,4.90752 z"
       id="text1"
       style="font-weight:bold;font-size:22.5778px;line-height:0.75;font-family:'Futura BdCn BT';-inkscape-font-specification:'Futura BdCn BT Bold';text-align:center;text-anchor:middle;fill:#ffcd47;stroke-width:30;stroke-linejoin:round;stroke-opacity:0.996078;fill-opacity:1"
       inkscape:transform-center-x="0.69482458"
       inkscape:transform-center-y="7.3651405"
       transform="translate(-0.16297671,-0.83378949)"
       aria-label="ThermoCoupler" />
    <path
       id="path5"
       style="fill:none;stroke-width:1.09481;stroke-linejoin:round;stroke-opacity:0.996078"
       d="M 266.2583,200.41876 A 122.80615,60.400543 0 0 1 143.45215,260.81931 122.80615,60.400543 0 0 1 20.645996,200.41876 122.80615,60.400543 0 0 1 143.45215,140.01822 122.80615,60.400543 0 0 1 266.2583,200.41876 Z" />
    <path
       id="path9"
       style="fill:#ffcd47;stroke-width:0.76608;stroke-linejoin:round;stroke-opacity:0.996078;fill-opacity:1"
       d="m 209.31482,153.82936 c 2e-5,5.49025 -28.90912,9.94097 -64.57036,9.94097 -35.66124,0 -64.570375,-4.45072 -64.570357,-9.94097 0,-0.15027 0.732995,1.20357 0.50088,1.24425 -0.705691,0.12369 -2.962275,-0.53512 -2.452751,-0.96939 5.44583,-4.64151 34.804658,-10.21582 66.522228,-10.21582 30.87457,0 61.33225,5.38778 67.70565,9.84628 0.74173,0.51887 -3.91477,1.79931 -5.02734,1.76857 -0.36955,-0.0102 1.89205,-1.85764 1.89205,-1.67389 z"
       sodipodi:nodetypes="sssssssss" />
    <path
       id="path9-4"
       style="fill:none;stroke-width:0.76608;stroke-linejoin:round;stroke-opacity:0.996078"
       d="m 160.88239,170.34485 a 64.570358,9.9409647 0 0 1 -64.570355,9.94096 64.570358,9.9409647 0 0 1 -64.570359,-9.94096 64.570358,9.9409647 0 0 1 64.570359,-9.94097 64.570358,9.9409647 0 0 1 64.570355,9.94097 z" />
    <path
       id="path5-7"
       style="fill:none;stroke-width:0.859206;stroke-linejoin:round;stroke-opacity:0.996078"
       d="m 239.96761,189.39296 a 96.376503,47.401436 0 0 1 -96.3765,47.40144 96.376503,47.401436 0 0 1 -96.376503,-47.40144 96.376503,47.401436 0 0 1 96.376503,-47.40144 96.376503,47.401436 0 0 1 96.3765,47.40144 z" />
    <path
       style="color:#000000;fill:#ffcd47;stroke-linejoin:round;-inkscape-stroke:none;fill-opacity:1"
       d="m 144.74414,115.21484 c -23.3929,0 -44.56856,2.66617 -59.976562,7.00977 -7.704,2.1718 -13.966244,4.75428 -18.378906,7.69531 -4.412662,2.94103 -7.082031,6.33183 -7.082031,10.09766 0,3.76582 2.669369,7.15662 7.082031,10.09765 4.412662,2.94104 10.674906,5.52547 18.378906,7.69727 15.408002,4.34359 36.583662,7.00977 59.976562,7.00977 23.3929,0 44.57052,-2.66618 59.97852,-7.00977 7.704,-2.1718 13.96624,-4.75623 18.3789,-7.69727 4.41266,-2.94103 7.08008,-6.33183 7.08008,-10.09765 0,-3.76583 -2.66742,-7.15663 -7.08008,-10.09766 -4.41266,-2.94103 -10.6749,-5.52351 -18.3789,-7.69531 -15.408,-4.3436 -36.58562,-7.00977 -59.97852,-7.00977 z m 0,2 c 23.24054,0 44.28325,2.66209 59.43555,6.9336 7.57615,2.13575 13.67964,4.68295 17.8125,7.4375 4.13286,2.75454 6.18945,5.62436 6.18945,8.43164 0,2.80728 -2.05659,5.67905 -6.18945,8.43359 -4.13286,2.75455 -10.23635,5.29979 -17.8125,7.43555 -15.1523,4.27151 -36.19501,6.93555 -59.43555,6.93555 -23.24054,0 -44.28325,-2.66404 -59.435546,-6.93555 -7.576149,-2.13576 -13.677687,-4.681 -17.810547,-7.43555 -4.13286,-2.75454 -6.191406,-5.62631 -6.191406,-8.43359 0,-2.80728 2.058546,-5.6771 6.191406,-8.43164 4.13286,-2.75455 10.234398,-5.30175 17.810547,-7.4375 15.152296,-4.27151 36.195006,-6.9336 59.435546,-6.9336 z"
       id="path10" />
    <path
       style="font-weight:800;font-stretch:condensed;font-size:16.9333px;line-height:0.75;font-family:'Futura PT Cond';-inkscape-font-specification:'Futura PT Cond Ultra-Bold Condensed';text-align:center;text-anchor:middle;fill:#1c1c1c;stroke-width:30;stroke-linejoin:round;stroke-opacity:0.996078"
       d="m 143.3758,149.10937 h -2.98026 l -0.54187,3.5052 c -0.18627,1.21919 -0.28787,2.45533 -0.38947,3.69146 -0.16933,-1.49013 -0.37253,-2.9972 -0.64346,-4.47039 l -0.508,-2.72627 h -2.62466 c -0.3048,1.7272 -0.62653,3.4544 -0.8636,5.18159 -0.0847,0.62654 -0.11853,1.25307 -0.18627,1.8796 -0.0847,-0.67733 -0.13546,-1.33773 -0.22013,-2.01506 -0.0508,-0.32174 -0.1016,-0.64347 -0.1524,-0.9652 -0.2032,-1.35466 -0.4064,-2.72626 -0.62653,-4.08093 h -3.01413 l 2.50613,11.29451 h 2.98026 l 0.57573,-4.09785 c 0.13547,-0.98214 0.2032,-1.9812 0.32174,-2.96333 0.27093,2.37066 0.72813,4.70746 1.15146,7.06118 h 2.92946 z m 6.45159,11.29451 v -2.70932 h -2.60773 v -1.7272 h 2.3368 v -2.55693 h -2.3368 v -1.64253 h 2.60773 v -2.65853 h -5.65572 v 11.29451 z m 1.30385,-11.29451 v 11.29451 h 4.26719 c 1.94733,0 3.4036,-1.23613 3.4036,-3.23426 0,-1.54093 -0.8128,-2.37066 -2.31987,-2.55692 1.3716,-0.11854 2.09973,-0.93134 2.09973,-2.30293 0,-1.10067 -0.52493,-2.1336 -1.49013,-2.6924 -0.72813,-0.42333 -1.59173,-0.508 -2.42146,-0.508 z m 3.048,2.45533 c 0.10159,-0.0169 0.20319,-0.0169 0.30479,-0.0169 0.62654,0 1.08374,0.3048 1.08374,0.98213 0,0.69427 -0.57574,0.98213 -1.20227,0.98213 -0.0677,0 -0.11853,0 -0.18626,-0.0169 z m 0,4.23333 c 0.0847,0 0.15239,-0.0169 0.23706,-0.0169 0.69427,0 1.27,0.32174 1.27,1.08374 0,0.74506 -0.5588,1.10066 -1.25307,1.10066 -0.0847,0 -0.16933,0 -0.25399,-0.0169 z"
       id="text1-4"
       inkscape:transform-center-x="0.69482458"
       inkscape:transform-center-y="7.3651405"
       aria-label="WEB" />
  </g>
</svg>
