<?xml version="1.0" encoding="UTF-8" standalone="no"?>
<!-- Uploaded to: SVG Repo, www.svgrepo.com, Generator: SVG Repo Mixer Tools -->

<svg
   fill="#000000"
   height="800px"
   width="800px"
   version="1.1"
   id="Capa_1"
   viewBox="0 0 280.417 280.417"
   xml:space="preserve"
   sodipodi:docname="unlocked.svg"
   inkscape:version="1.3.2 (091e20e, 2023-11-25, custom)"
   xmlns:inkscape="http://www.inkscape.org/namespaces/inkscape"
   xmlns:sodipodi="http://sodipodi.sourceforge.net/DTD/sodipodi-0.dtd"
   xmlns="http://www.w3.org/2000/svg"
   xmlns:svg="http://www.w3.org/2000/svg"><defs
   id="defs1" /><sodipodi:namedview
   id="namedview1"
   pagecolor="#505050"
   bordercolor="#ffffff"
   borderopacity="1"
   inkscape:showpageshadow="0"
   inkscape:pageopacity="0"
   inkscape:pagecheckerboard="1"
   inkscape:deskcolor="#d1d1d1"
   inkscape:zoom="1.42875"
   inkscape:cx="399.65004"
   inkscape:cy="400"
   inkscape:window-width="2560"
   inkscape:window-height="1369"
   inkscape:window-x="1912"
   inkscape:window-y="-8"
   inkscape:window-maximized="1"
   inkscape:current-layer="Capa_1" />
<path
   d="M206.527,4.542c-40.742,0-73.889,33.146-73.889,73.889v32.111H16.125C7.22,110.542,0,117.761,0,126.667V259.75  c0,8.906,7.22,16.125,16.125,16.125h165.25c8.906,0,16.125-7.219,16.125-16.125V126.667c0-8.906-7.219-16.125-16.125-16.125h-8.736  V78.431c0-18.686,15.202-33.889,33.889-33.889c18.687,0,33.89,15.202,33.89,33.889c0,11.046,8.954,20,20,20s20-8.954,20-20  C280.417,37.689,247.27,4.542,206.527,4.542z M114.416,194.777v26.432c0,8.652-7.014,15.666-15.666,15.666  s-15.666-7.014-15.666-15.666v-26.432c-5.885-4.639-9.668-11.826-9.668-19.901c0-13.992,11.342-25.334,25.334-25.334  s25.334,11.342,25.334,25.334C124.084,182.951,120.301,190.138,114.416,194.777z"
   id="path1"
   style="fill:#ffcd47;fill-opacity:1" />
</svg>
